<svg width="27" height="27" viewBox="0 0 27 27" fill="none" xmlns="http://www.w3.org/2000/svg">
<path d="M26.3145 18.3066H20.5941V10.1084L25.9731 13.1819C26.071 13.2387 26.1891 13.2716 26.3145 13.2726C26.6934 13.2716 27 12.965 27 12.5852C27 12.3316 26.8627 12.1101 26.6586 11.9912L26.6549 11.9893L14.1864 4.86474V4.3595C14.3439 4.37415 14.5068 4.42174 14.6615 4.42174C14.6651 4.42174 14.6706 4.42174 14.6752 4.42174C15.1099 4.42174 15.53 4.36042 15.9273 4.24509L15.8952 4.25333C16.1908 4.19567 16.5295 4.16272 16.8773 4.16272C17.2361 4.16272 17.5866 4.19841 17.9262 4.26523L17.8923 4.25974C17.928 4.26614 17.9683 4.27072 18.0104 4.27072C18.1788 4.27072 18.3325 4.20848 18.4488 4.10505L18.4479 4.10597C18.5952 3.97875 18.6886 3.79203 18.6895 3.58334V1.00956C18.6895 0.684633 18.4634 0.411878 18.1596 0.341401L18.155 0.340486C17.7715 0.23889 17.3313 0.179396 16.8773 0.179396C16.4197 0.179396 15.9758 0.238889 15.5538 0.350554L15.5895 0.342317C15.3259 0.403641 15.0239 0.438422 14.7127 0.438422C14.5013 0.438422 14.2944 0.421947 14.0922 0.390827L14.1151 0.393573C14.0034 0.15926 13.7691 0 13.4963 0C13.1193 0 12.8136 0.305705 12.8136 0.682803V0.686464V4.86474L0.345966 11.9893C0.138203 12.1101 0 12.3316 0 12.5852C0 12.9641 0.307525 13.2716 0.686441 13.2716C0.811831 13.2716 0.928983 13.2378 1.03058 13.1792L1.02692 13.181L6.40678 10.1066V18.3048H0.686441C0.307525 18.3048 0 18.6123 0 18.9913V26.3135C0 26.6925 0.307525 27 0.686441 27H26.3136C26.6925 27 27 26.6925 27 26.3135V18.9913C27 18.6123 26.6925 18.3048 26.3136 18.3048L26.3145 18.3066ZM15.9337 1.67131C16.2064 1.59626 16.5194 1.55232 16.8425 1.55232C17.01 1.55232 17.1747 1.56422 17.3358 1.58619L17.3175 1.58436V2.80993C17.1711 2.79803 17.0018 2.7907 16.8297 2.7907C16.3821 2.7907 15.9456 2.8383 15.5255 2.92891L15.5657 2.92159C15.2875 3.00214 14.9681 3.04882 14.6377 3.04882C14.4784 3.04882 14.3228 3.03783 14.1691 3.0177L14.1874 3.01953V1.8086C14.3246 1.82142 14.4848 1.82782 14.6468 1.82782C15.1035 1.82782 15.5474 1.77108 15.9712 1.66307L15.9337 1.67131ZM1.3738 19.6795H6.40769V25.6289H1.3738V19.6795ZM7.78058 18.9931V9.32401L13.5009 6.05553L19.2213 9.32493V25.6298H16.9331V20.8246C16.9331 20.4456 16.6256 20.1381 16.2467 20.1381H10.7552C10.3762 20.1381 10.0687 20.4456 10.0687 20.8246V25.6298H7.78058V18.9931ZM11.4416 25.6289V21.5101H15.5602V25.6289H11.4416ZM25.628 25.6289H20.5941V19.6795H25.628V25.6289ZM13.5009 16.9337C15.3964 16.9337 16.9331 15.3969 16.9331 13.5014C16.9331 11.6058 15.3964 10.0691 13.5009 10.0691C11.6054 10.0691 10.0687 11.6058 10.0687 13.5014C10.0705 15.396 11.6063 16.9319 13.5009 16.9337ZM13.5009 11.442C14.6386 11.442 15.5602 12.3637 15.5602 13.5014C15.5602 14.6391 14.6386 15.5608 13.5009 15.5608C12.3633 15.5608 11.4416 14.6391 11.4416 13.5014C11.4434 12.3646 12.3642 11.4438 13.5009 11.442Z" fill="white"/>
</svg>
