<svg width="25" height="29" viewBox="0 0 25 29" fill="none" xmlns="http://www.w3.org/2000/svg">
<path d="M12.5 29.0009C12.4017 28.9991 12.3042 28.9839 12.21 28.9556C8.86165 27.8416 5.94933 25.701 3.88656 22.8378C1.82378 19.9747 0.715393 16.5345 0.718758 13.0056V5.43844C0.718758 5.19808 0.814237 4.96758 0.984192 4.79762C1.15415 4.62767 1.38466 4.53219 1.62501 4.53219C3.51811 4.53895 5.39365 4.16904 7.14242 3.44402C8.8912 2.71899 10.4783 1.65333 11.8113 0.309062C11.9933 0.122435 12.2396 0.0122399 12.5 0.000936579C12.621 -0.00456996 12.7419 0.014247 12.8556 0.0562749C12.9692 0.0983027 13.0733 0.162688 13.1616 0.245624C14.4949 1.60136 16.0845 2.67849 17.8379 3.41438C19.5913 4.15027 21.4735 4.53024 23.375 4.53219C23.6154 4.53219 23.8459 4.62767 24.0158 4.79762C24.1858 4.96758 24.2813 5.19808 24.2813 5.43844V13.0056C24.2942 16.5422 23.1902 19.9926 21.1268 22.8648C19.0633 25.737 16.1457 27.8844 12.79 29.0009C12.6938 29.014 12.5962 29.014 12.5 29.0009ZM2.53126 6.34469V13.0328C2.53454 16.1247 3.49443 19.1398 5.27923 21.6644C7.06403 24.1891 9.58631 26.0997 12.5 27.1341C15.4181 26.0982 17.9434 24.1834 19.7286 21.6533C21.5138 19.1232 22.4711 16.1021 22.4688 13.0056V6.34469C18.7618 6.1433 15.2391 4.66376 12.5 2.15781C9.75972 4.66185 6.23773 6.14108 2.53126 6.34469Z" fill="white"/>
<path d="M10.6875 9.0625H14.3125V11.9444C14.3125 12.1415 14.2342 12.3305 14.0948 12.4698C13.9555 12.6092 13.7665 12.6875 13.5694 12.6875H11.4306C11.2335 12.6875 11.0445 12.6092 10.9052 12.4698C10.7658 12.3305 10.6875 12.1415 10.6875 11.9444V9.0625Z" fill="#FF8000"/>
<path d="M16.3878 20.8438H8.61219C7.96157 20.8414 7.33828 20.5818 6.87821 20.1218C6.41815 19.6617 6.15864 19.0384 6.15625 18.3878V10.6122C6.15864 9.96157 6.41815 9.33828 6.87821 8.87821C7.33828 8.41815 7.96157 8.15864 8.61219 8.15625H16.3878C17.0384 8.15864 17.6617 8.41815 18.1218 8.87821C18.5818 9.33828 18.8414 9.96157 18.8438 10.6122V18.3878C18.8414 19.0384 18.5818 19.6617 18.1218 20.1218C17.6617 20.5818 17.0384 20.8414 16.3878 20.8438ZM8.61219 9.96875C8.44154 9.96875 8.27788 10.0365 8.15721 10.1572C8.03654 10.2779 7.96875 10.4415 7.96875 10.6122V18.3878C7.96875 18.5585 8.03654 18.7221 8.15721 18.8428C8.27788 18.9635 8.44154 19.0312 8.61219 19.0312H16.3878C16.5585 19.0312 16.7221 18.9635 16.8428 18.8428C16.9635 18.7221 17.0312 18.5585 17.0312 18.3878V10.6122C17.0312 10.4415 16.9635 10.2779 16.8428 10.1572C16.7221 10.0365 16.5585 9.96875 16.3878 9.96875H8.61219Z" fill="white"/>
</svg>
