<svg width="25" height="25" viewBox="0 0 25 25" fill="none" xmlns="http://www.w3.org/2000/svg">
<path d="M13.2435 13.1997C13.2435 13.4229 13.1548 13.637 12.997 13.7948C12.8391 13.9527 12.625 14.0414 12.4018 14.0414H9.03349C8.81016 14.0414 8.59597 13.9526 8.43805 13.7947C8.28013 13.6368 8.19141 13.4226 8.19141 13.1993C8.19141 12.9759 8.28013 12.7617 8.43805 12.6038C8.59597 12.4459 8.81016 12.3572 9.03349 12.3572H12.4002C12.5109 12.357 12.6206 12.3786 12.723 12.4209C12.8253 12.4631 12.9183 12.5251 12.9967 12.6034C13.075 12.6817 13.1371 12.7746 13.1795 12.877C13.2219 12.9793 13.2436 13.0889 13.2435 13.1997ZM9.03349 9.55135H12.4002C12.6235 9.55135 12.8377 9.46264 12.9956 9.30471C13.1535 9.14679 13.2422 8.9326 13.2422 8.70927C13.2422 8.48594 13.1535 8.27175 12.9956 8.11383C12.8377 7.95591 12.6235 7.86719 12.4002 7.86719H9.03349C8.81016 7.86719 8.59597 7.95591 8.43805 8.11383C8.28013 8.27175 8.19141 8.48594 8.19141 8.70927C8.19141 8.9326 8.28013 9.14679 8.43805 9.30471C8.59597 9.46264 8.81016 9.55135 9.03349 9.55135Z" fill="#FA9201"/>
<path d="M22.9072 1.5575C21.9121 0.566741 20.5672 0.00727702 19.163 0H5.66635C2.27718 0 0.333017 1.94333 0.333017 5.33333V22.1725C0.331927 22.5378 0.43286 22.8961 0.624445 23.2072C0.816031 23.5182 1.09066 23.7696 1.41739 23.9329C1.74412 24.0963 2.10998 24.1652 2.47376 24.1318C2.83753 24.0985 3.18477 23.9642 3.47635 23.7442L5.39302 22.3075C5.44825 22.266 5.5166 22.2459 5.5855 22.2508C5.6544 22.2557 5.71921 22.2853 5.76802 22.3342L7.63385 24.21C7.81639 24.3938 8.03338 24.5397 8.27241 24.6395C8.51143 24.7393 8.76779 24.7909 9.02681 24.7914C9.28582 24.792 9.5424 24.7414 9.78184 24.6426C10.0213 24.5439 10.2389 24.3988 10.4222 24.2158L12.308 22.3308C12.3548 22.2839 12.4172 22.2557 12.4833 22.2516C12.5495 22.2474 12.6149 22.2676 12.6672 22.3083L14.588 23.745C14.88 23.9634 15.227 24.0963 15.5902 24.1288C15.9534 24.1614 16.3185 24.0922 16.6447 23.9291C16.9708 23.7661 17.2452 23.5155 17.4371 23.2054C17.629 22.8953 17.7309 22.538 17.7314 22.1733V11.785H20.7313C21.2289 11.8138 21.727 11.737 22.1928 11.5597C22.6586 11.3823 23.0816 11.1085 23.434 10.756C23.7865 10.4036 24.0604 9.98057 24.2377 9.51477C24.415 9.04897 24.4918 8.55092 24.463 8.05333V5.3325C24.4625 3.91636 23.8999 2.55832 22.8989 1.55667L22.9072 1.5575ZM16.0514 22.1717C16.0521 22.2239 16.0378 22.2752 16.0101 22.3195C15.9825 22.3639 15.9427 22.3993 15.8955 22.4217C15.8494 22.4464 15.797 22.4571 15.7448 22.4523C15.6927 22.4476 15.6431 22.4277 15.6022 22.395L13.6939 20.965C13.3172 20.6788 12.8497 20.5386 12.3778 20.5704C11.9058 20.6021 11.4613 20.8035 11.1264 21.1375L9.24052 23.0233C9.18681 23.0765 9.11439 23.1064 9.03885 23.1067C8.96331 23.1064 8.89089 23.0765 8.83718 23.0233L6.96635 21.1533C6.63005 20.817 6.18395 20.613 5.70959 20.5786C5.23524 20.5442 4.76435 20.6816 4.38302 20.9658L2.46385 22.4C2.42406 22.4335 2.3751 22.4542 2.32336 22.4594C2.27161 22.4646 2.21951 22.4541 2.17385 22.4292C2.12559 22.4061 2.08513 22.3695 2.05744 22.3237C2.02975 22.278 2.01605 22.2251 2.01802 22.1717V5.3325C2.01802 2.8425 3.17802 1.68417 5.66635 1.68417H16.3889C16.3689 1.7225 16.3622 1.7675 16.3439 1.805C16.2911 1.92195 16.246 2.0422 16.2088 2.165C16.1822 2.24833 16.1497 2.33167 16.1305 2.42333C16.0848 2.62638 16.06 2.83357 16.0564 3.04167C16.0564 3.0575 16.0505 3.07083 16.0505 3.08667V22.17L16.0514 22.1717ZM22.7872 8.05667C22.8159 8.33274 22.7825 8.61174 22.6897 8.8733C22.5968 9.13487 22.4467 9.3724 22.2504 9.56859C22.054 9.76478 21.8164 9.91466 21.5547 10.0073C21.2931 10.1 21.0141 10.1331 20.738 10.1042H17.738V3.0975C17.738 2.72178 17.8873 2.36144 18.153 2.09577C18.4186 1.83009 18.779 1.68083 19.1547 1.68083H19.1614C20.1265 1.68392 21.0509 2.06982 21.7318 2.75383C22.4127 3.43783 22.7943 4.36405 22.793 5.32917L22.7872 8.05667ZM6.75468 8.71C6.75468 8.93201 6.68885 9.14903 6.56551 9.33363C6.44217 9.51822 6.26686 9.6621 6.06175 9.74706C5.85664 9.83201 5.63094 9.85424 5.41319 9.81093C5.19545 9.76762 4.99544 9.66071 4.83846 9.50373C4.68147 9.34674 4.57456 9.14673 4.53125 8.92899C4.48794 8.71125 4.51017 8.48555 4.59513 8.28044C4.68009 8.07533 4.82396 7.90002 5.00856 7.77668C5.19315 7.65333 5.41017 7.5875 5.63218 7.5875C5.92974 7.5875 6.21513 7.70565 6.42562 7.91598C6.6361 8.12631 6.75446 8.41244 6.75468 8.71ZM6.75468 13.2008C6.75468 13.4228 6.68885 13.6399 6.56551 13.8245C6.44217 14.0091 6.26686 14.1529 6.06175 14.2379C5.85664 14.3228 5.63094 14.3451 5.41319 14.3018C5.19545 14.2585 4.99544 14.1515 4.83846 13.9946C4.68147 13.8376 4.57456 13.6376 4.53125 13.4198C4.48794 13.2021 4.51017 12.9764 4.59513 12.7713C4.68009 12.5662 4.82396 12.3909 5.00856 12.2675C5.19315 12.1442 5.41017 12.0783 5.63218 12.0783C5.77966 12.0783 5.9257 12.1074 6.06194 12.1639C6.19818 12.2203 6.32196 12.3031 6.42621 12.4074C6.53045 12.5117 6.61312 12.6356 6.66948 12.7718C6.72584 12.9081 6.75479 13.0534 6.75468 13.2008Z" fill="white"/>
</svg>
